<svg xmlns="http://www.w3.org/2000/svg" viewBox="0 0 256 256" role="img" aria-labelledby="title desc">
  <title id="title">CTMerchant</title>
  <desc id="desc">CTMerchant browser icon</desc>
  <defs>
    <linearGradient id="bg" x1="0%" y1="0%" x2="100%" y2="100%">
      <stop offset="0%" stop-color="#131921" />
      <stop offset="100%" stop-color="#0F172A" />
    </linearGradient>
    <linearGradient id="accent" x1="0%" y1="0%" x2="100%" y2="100%">
      <stop offset="0%" stop-color="#F472B6" />
      <stop offset="100%" stop-color="#DB2777" />
    </linearGradient>
  </defs>
  <rect width="256" height="256" rx="56" fill="url(#bg)" />
  <circle cx="128" cy="92" r="38" fill="url(#accent)" opacity="0.18" />
  <path
    d="M71 158c0-8.284 6.716-15 15-15h84c8.284 0 15 6.716 15 15v20c0 8.284-6.716 15-15 15H86c-8.284 0-15-6.716-15-15v-20Z"
    fill="#FFFFFF"
    fill-opacity="0.1"
  />
  <path
    d="M89 105c0-21.539 17.461-39 39-39s39 17.461 39 39-17.461 39-39 39-39-17.461-39-39Zm11 0c0 15.464 12.536 28 28 28s28-12.536 28-28-12.536-28-28-28-28 12.536-28 28Z"
    fill="url(#accent)"
  />
  <path
    d="M113 94h30c3.314 0 6 2.686 6 6s-2.686 6-6 6h-30c-3.314 0-6-2.686-6-6s2.686-6 6-6Z"
    fill="#F8FAFC"
  />
  <path
    d="M103 145h50c2.761 0 5 2.239 5 5s-2.239 5-5 5h-50c-2.761 0-5-2.239-5-5s2.239-5 5-5Z"
    fill="#F8FAFC"
    opacity="0.92"
  />
  <text x="128" y="214" text-anchor="middle" font-family="Arial, Helvetica, sans-serif" font-size="34" font-weight="700" fill="#F8FAFC">CTM</text>
</svg>
